<svg xmlns="http://www.w3.org/2000/svg" xmlns:svg="http://www.w3.org/2000/svg" id="Ebene_1" width="32" height="32" x="0" y="0" enable-background="new 0 0 32 32" version="1.1" viewBox="0 0 32 32" xml:space="preserve"><g id="g6"><path id="path2" fill="#FFF" d="M16,30.918c-5.618,0-10.189-4.963-10.189-11.062v-7.792C5.811,5.963,10.381,1,16,1 c5.618,0,10.188,4.963,10.188,11.064v7.792C26.188,25.955,21.617,30.918,16,30.918z"/><path id="path4" fill="#62686A" d="M16,2c5.066,0,9.188,4.515,9.188,10.064v7.792c0,5.549-4.122,10.062-9.188,10.062 c-5.067,0-9.189-4.514-9.189-10.062v-7.792C6.811,6.515,10.933,2,16,2 M16,0C9.819,0,4.811,5.402,4.811,12.064v7.792 c0,6.662,5.009,12.062,11.189,12.062c6.178,0,11.188-5.4,11.188-12.062v-7.792C27.188,5.402,22.178,0,16,0L16,0z"/></g><path id="path12" fill="#62686A" d="M17.352,6.635c0,0.984-0.604,1.782-1.352,1.782l0,0c-0.747,0-1.352-0.798-1.352-1.782V4.237 c0-0.984,0.605-1.782,1.352-1.782l0,0c0.746,0,1.352,0.798,1.352,1.782V6.635z"/><rect style="opacity:.518916;fill:none;fill-rule:evenodd;stroke-width:.1;stroke-dasharray:.3,.1" id="rect201" width="1.402" height="4.024" x="10.14" y="14.695"/><path style="fill:#62686a;fill-opacity:1;stroke:none;stroke-width:.0366552px;stroke-linecap:butt;stroke-linejoin:miter;stroke-opacity:1" id="path13938" d="m 11.541327,19.625199 v -4.930126 h 1.374571 1.37457 v 4.930126 4.930126 h -1.37457 -1.374571 z"/><path style="fill:#62686a;fill-opacity:1;stroke:none;stroke-width:.0366552px;stroke-linecap:butt;stroke-linejoin:miter;stroke-opacity:1" id="path13938-3" d="m 17.805627,19.561933 v -4.930126 h 1.374571 1.37457 v 4.930126 4.930126 h -1.37457 -1.374571 z"/></svg>